<svg xmlns="http://www.w3.org/2000/svg" xmlns:xlink="http://www.w3.org/1999/xlink" xmlns:lucid="lucid" width="9500" height="6000"><g transform="translate(-500 0)" lucid:page-tab-id="0_0"><path d="M1432.6 3665.38a6 6 0 0 1 6-6h1552.14a6 6 0 0 1 6 6v608.67a6 6 0 0 1-6 6H1438.6a6 6 0 0 1-6-6z" fill="none"/><use xlink:href="#a" transform="matrix(1,0,0,1,1444.6052878926637,3671.375) translate(0 444.6111111111111)"/><defs><path fill="#fff" d="M603-651c0-97-31-172-120-170-102 1-164 75-214 132-81 91-127 171-181 277-30 59-52 189-20 259C104-74 204-5 336-32c36-8 99-21 126-45 137-73 206-137 206-191 0-71-82-87-131-48-77 62-149 135-266 145-97 8-92-125-54-190 41-69 89-162 136-217 46-53 83-81 115-81 30 22 11 105 74 105 41 0 61-32 61-97" id="b"/><path fill="#fff" d="M70-181C36-106 39-36 121-28c46 4 59-41 69-68 14-40 27-86 43-123 28-31 91-34 132-52 22-9 42-12 57-14 23 70 34 146 54 220 8 29 38 43 83 43 40 0 60-20 60-60 0-87-40-149-50-230 28-18 51-84 14-113-11-9-44-19-50-27-27-105-52-214-82-316-19-65-108-61-136-9-73 134-133 295-189 435-24 59-31 107-56 161zm286-369c8 39 19 86 26 125-22 9-48 16-78 17 14-39 32-102 52-142" id="c"/><path fill="#fff" d="M80-334C68-194 2 14 192-26c62-30 136-63 191-92 174-92 259-210 259-347 0-142-33-193-97-253-69-64-182-82-292-104-16-3-35-3-56-3-90 0-82 55-82 133 0 95-9 196-26 279l1-1c-6 25-8 57-10 80zm133 125c17-153 24-313 53-452 153-5 243 55 220 201l-1-2c-24 127-149 211-272 253zm48-441v3-3zm-8 53c0-1 0-1 1-2" id="d"/><path fill="#fff" d="M562-231c-119 0-201 32-308 40-14 1-42-3-40-14 7-43 5-108 16-155 15-24 58-17 92-28 55-18 122-10 191-10 29 0 63-18 62-50l-1 1c9-54-30-90-85-89l2 1c-79-20-172-1-247 10 3-27 1-57 6-86 80-35 193-36 303-41 17-1 37-7 58-16 38-58-8-126-51-147l1 1c-50-22-116-3-173 4-55 6-120 24-173 38l1-1c-58 17-141 13-134 97 6 67 3 142 3 213 0 107-34 195-34 299 0 91 55 147 155 140 120-8 214-45 346-45 28 0 55-3 82-5h-6c53-8 92-74 55-130-9-16-23-28-41-35-26 5-52 8-80 8zM242-525v-1 1" id="e"/><g id="a"><use transform="matrix(0.5555555555555556,0,0,0.5555555555555556,0,0)" xlink:href="#b"/><use transform="matrix(0.5555555555555556,0,0,0.5555555555555556,352.77777777777777,0)" xlink:href="#c"/><use transform="matrix(0.5555555555555556,0,0,0.5555555555555556,680,0)" xlink:href="#d"/><use transform="matrix(0.5555555555555556,0,0,0.5555555555555556,1016.1111111111111,0)" xlink:href="#e"/></g></defs></g></svg>