<svg width="466" height="180" viewBox="0 0 466 180" fill="none" xmlns="http://www.w3.org/2000/svg">
<path d="M83.08 7.89C83.08 8.81 82.85 10.2667 82.39 12.26C81.93 14.1 81.3933 16.17 80.78 18.47C80.32 20.77 79.7067 23.07 78.94 25.37C78.3267 27.67 77.79 29.74 77.33 31.58C77.0233 32.8067 76.5633 35.6433 75.95 40.09C75.49 44.3833 75.26 49.5967 75.26 55.73C75.26 56.19 75.26 57.0333 75.26 58.26C75.4133 59.3333 75.49 61.02 75.49 63.32C75.49 65.62 75.49 68.6867 75.49 72.52C75.6433 76.2 75.72 80.8767 75.72 86.55C75.72 88.39 76.18 89.31 77.1 89.31C77.4067 89.31 77.6367 89.2333 77.79 89.08C77.9433 88.7733 78.6333 88.0067 79.86 86.78C85.0733 81.1067 90.5167 75.5867 96.19 70.22C102.017 64.8533 107.767 59.5633 113.44 54.35C119.267 48.9833 124.863 43.6933 130.23 38.48C135.597 33.1133 140.503 27.5167 144.95 21.69C145.717 20.6167 146.253 20.0033 146.56 19.85C147.02 19.5433 147.557 19.39 148.17 19.39C151.237 19.39 153.383 19.6967 154.61 20.31C155.837 20.9233 157.063 21.23 158.29 21.23C158.443 21.23 158.827 21.46 159.44 21.92C160.053 22.38 160.667 23.07 161.28 23.99C161.893 24.7567 162.43 25.7533 162.89 26.98C163.503 28.0533 163.81 29.28 163.81 30.66C163.81 31.12 163.427 31.8867 162.66 32.96C156.527 42.16 151.083 51.6667 146.33 61.48C141.73 71.2933 137.667 81.8733 134.14 93.22C130.613 104.567 127.623 116.91 125.17 130.25C122.717 143.437 120.723 158.08 119.19 174.18C118.883 176.48 118.653 177.937 118.5 178.55C118.5 179.163 118.193 179.47 117.58 179.47C116.813 179.47 115.97 179.163 115.05 178.55C114.283 177.937 113.363 177.63 112.29 177.63C111.523 177.63 111.063 177.783 110.91 178.09C110.91 178.397 110.527 178.55 109.76 178.55C108.227 178.55 106.54 178.013 104.7 176.94C102.86 175.867 101.48 174.947 100.56 174.18C99.7933 173.413 99.2567 172.877 98.95 172.57C98.7967 172.417 98.72 172.033 98.72 171.42C98.72 171.113 98.8734 169.657 99.18 167.05C99.64 164.597 100.177 161.53 100.79 157.85C101.403 154.017 102.093 149.953 102.86 145.66C103.627 141.213 104.317 136.997 104.93 133.01C105.543 128.87 106.08 125.267 106.54 122.2C107.153 119.133 107.613 116.987 107.92 115.76C108.227 113.92 108.763 111.467 109.53 108.4C110.45 105.18 111.447 101.73 112.52 98.05C113.747 94.37 114.973 90.6133 116.2 86.78C117.427 82.7933 118.577 79.19 119.65 75.97C119.65 75.3567 119.343 75.05 118.73 75.05C118.423 75.05 118.04 75.28 117.58 75.74C114.82 78.5 111.677 81.72 108.15 85.4C104.777 89.08 101.48 92.6067 98.26 95.98C95.1933 99.3533 92.4333 102.42 89.98 105.18C87.5267 107.787 85.9167 109.55 85.15 110.47C84.0767 111.697 83.3867 112.387 83.08 112.54C82.7734 112.693 82.4667 112.77 82.16 112.77C81.8533 112.77 81.01 112.54 79.63 112.08C78.4034 111.62 76.4867 111.16 73.88 110.7C71.8867 110.393 69.8933 109.933 67.9 109.32C66.06 108.707 64.5267 107.403 63.3 105.41C62.38 104.03 61.3833 101.423 60.31 97.59C59.39 93.7567 58.7767 89.3867 58.47 84.48V77.35V62.17C58.47 61.4033 58.24 61.02 57.78 61.02C57.4733 61.02 57.1667 61.25 56.86 61.71C56.5533 62.17 55.94 63.2433 55.02 64.93C50.88 72.75 47.3533 80.4933 44.44 88.16C41.5267 95.6733 39.2267 101.653 37.54 106.1C32.6333 119.593 29.7967 127.72 29.03 130.48C28.4167 133.087 27.2667 137.533 25.58 143.82C24.0467 149.953 23.28 155.473 23.28 160.38C23.28 161.147 22.7433 161.99 21.67 162.91C20.5967 163.83 19.6767 164.29 18.91 164.29C17.2233 164.29 16.15 164.673 15.69 165.44C15.23 166.207 14.54 166.59 13.62 166.59C13.16 166.59 12.47 166.36 11.55 165.9C10.7833 165.593 9.94001 165.21 9.02001 164.75C8.25334 164.29 7.48668 163.83 6.72001 163.37C5.95334 163.063 5.41668 162.91 5.11001 162.91C4.34334 162.91 3.34668 161.99 2.12001 160.15C1.04668 158.31 0.51001 156.393 0.51001 154.4C0.51001 152.253 0.816676 150.183 1.43001 148.19C2.19668 146.197 3.04001 144.357 3.96001 142.67C4.88001 140.83 5.72334 139.143 6.49001 137.61C7.41001 136.077 8.02334 134.62 8.33001 133.24C11.2433 121.893 14.9233 110.7 19.37 99.66C23.97 88.4667 28.8 77.5033 33.86 66.77C38.92 56.0367 43.9033 45.5333 48.81 35.26C53.87 24.8333 58.3933 14.7133 62.38 4.9C63.1467 3.21333 63.6833 2.06332 63.99 1.44999C64.2967 0.83666 64.6033 0.529999 64.91 0.529999C66.1367 0.529999 66.98 0.683328 67.44 0.98999C67.9 1.14332 69.1267 1.37332 71.12 1.68C72.96 1.98666 74.8767 2.36999 76.87 2.82999C78.8633 3.28999 80.4734 4.13332 81.7 5.35999C82.62 6.27999 83.08 7.12332 83.08 7.89Z" fill="white"/>
<path d="M265.308 23.76C265.308 22.9933 265.078 22.4567 264.618 22.15C264.158 21.69 262.472 21.46 259.558 21.46C259.098 21.46 258.562 21.5367 257.948 21.69C257.488 21.69 256.645 21.8433 255.418 22.15C252.045 23.07 248.672 23.9133 245.298 24.68C241.925 25.4467 238.628 26.3667 235.408 27.44C232.188 28.5133 229.045 29.8933 225.978 31.58C222.912 33.1133 220.075 35.1833 217.468 37.79C214.402 46.07 211.182 54.5033 207.808 63.09C204.435 71.5233 201.905 79.88 200.218 88.16C203.285 90.7667 205.815 92.8367 207.808 94.37C209.955 95.9033 211.872 96.67 213.558 96.67C214.325 96.67 214.785 96.67 214.938 96.67C215.245 96.5167 215.935 96.0567 217.008 95.29C224.368 90.3833 231.345 84.3267 237.938 77.12C244.532 69.76 249.975 62.17 254.268 54.35C255.342 52.3567 256.492 49.98 257.718 47.22C259.098 44.46 260.325 41.7 261.398 38.94C262.472 36.0267 263.392 33.2667 264.158 30.66C264.925 27.9 265.308 25.6 265.308 23.76ZM274.278 57.34C269.372 66.3867 263.315 74.9733 256.108 83.1C249.055 91.2267 241.695 98.28 234.028 104.26C233.415 104.72 232.265 105.333 230.578 106.1C229.045 106.867 227.205 107.633 225.058 108.4C222.912 109.013 220.535 109.627 217.928 110.24C215.475 110.7 213.098 110.93 210.798 110.93C208.652 110.93 206.888 110.777 205.508 110.47C204.128 110.01 202.902 109.473 201.828 108.86C200.908 108.247 199.988 107.633 199.068 107.02C198.302 106.253 197.382 105.487 196.308 104.72C195.388 104.107 194.775 103.8 194.468 103.8C194.162 103.8 193.855 103.953 193.548 104.26C193.395 104.567 193.088 105.41 192.628 106.79C190.942 112.003 189.255 117.677 187.568 123.81C185.882 129.79 184.348 135.463 182.968 140.83C181.742 146.197 180.668 150.873 179.748 154.86C178.982 158.693 178.598 161.07 178.598 161.99C178.598 162.91 178.062 163.753 176.988 164.52C175.302 165.747 173.538 166.36 171.698 166.36C170.165 166.36 169.168 166.13 168.708 165.67C167.788 164.75 166.945 164.06 166.178 163.6C165.565 163.293 164.952 162.987 164.338 162.68C163.725 162.527 163.112 162.297 162.498 161.99C161.885 161.683 161.118 161.07 160.198 160.15C159.738 159.69 159.508 159.23 159.508 158.77C159.508 158.31 159.815 156.853 160.428 154.4C160.888 152.56 161.425 150.337 162.038 147.73C162.652 145.123 163.265 142.44 163.878 139.68C164.645 136.767 165.335 134.007 165.948 131.4C166.715 128.64 167.482 126.34 168.248 124.5C168.555 123.887 168.862 123.197 169.168 122.43C169.475 121.51 169.628 120.743 169.628 120.13C169.628 118.75 170.012 116.833 170.778 114.38C171.545 111.773 172.465 109.013 173.538 106.1C174.612 103.187 175.532 100.427 176.298 97.82C177.218 95.06 177.832 92.8367 178.138 91.15C178.138 90.3833 177.832 89.77 177.218 89.31C176.145 88.5433 175.148 87.7 174.228 86.78C173.308 85.86 172.848 84.7867 172.848 83.56C172.848 82.64 172.925 82.0267 173.078 81.72C173.385 81.4133 173.768 81.1833 174.228 81.03C174.688 80.8767 175.532 80.4167 176.758 79.65C177.985 78.73 179.595 78.27 181.588 78.27C182.048 78.27 182.355 77.9633 182.508 77.35C183.582 74.13 184.425 71.5233 185.038 69.53C185.805 67.5367 186.495 65.7733 187.108 64.24C187.722 62.5533 188.258 61.02 188.718 59.64C189.178 58.1067 189.638 56.2667 190.098 54.12C190.098 53.66 190.022 53.3533 189.868 53.2C189.868 53.0467 189.485 52.97 188.718 52.97C187.952 52.97 186.955 52.5867 185.728 51.82C183.582 50.5933 182.355 49.5967 182.048 48.83C181.742 47.91 181.205 47.0667 180.438 46.3C179.365 45.2267 178.828 44.3833 178.828 43.77C178.828 42.0833 179.365 40.55 180.438 39.17C181.665 37.79 183.812 36.1033 186.878 34.11C192.552 30.43 198.225 26.8267 203.898 23.3C209.725 19.7733 215.705 16.63 221.838 13.87C227.972 11.11 234.258 8.88666 240.698 7.19999C247.138 5.35999 253.885 4.43999 260.938 4.43999C264.312 4.43999 267.072 4.66999 269.218 5.12999C271.518 5.43666 274.125 6.81666 277.038 9.27C279.645 11.4167 281.562 13.5633 282.788 15.71C284.168 17.7033 284.858 21 284.858 25.6C284.858 32.1933 283.708 38.02 281.408 43.08C279.108 48.14 276.732 52.8933 274.278 57.34Z" fill="white"/>
<path d="M356.726 21.92C359.333 24.68 361.249 27.8233 362.476 31.35C363.703 34.7233 364.546 37.8667 365.006 40.78C365.313 42.16 365.619 43.54 365.926 44.92C366.233 46.3 366.386 47.3733 366.386 48.14C366.386 48.9067 365.849 49.5967 364.776 50.21C363.856 50.8233 362.783 51.13 361.556 51.13C360.483 51.13 359.179 50.9 357.646 50.44C355.499 49.8267 353.429 48.6 351.436 46.76C349.596 44.92 348.293 43.4633 347.526 42.39C346.913 41.47 346.376 40.2433 345.916 38.71C345.609 37.1767 345.226 35.5667 344.766 33.88C344.306 32.1933 343.616 30.5833 342.696 29.05C341.776 27.3633 340.473 26.06 338.786 25.14C337.099 24.22 335.413 23.76 333.726 23.76C332.959 23.76 331.809 25.37 330.276 28.59C328.896 31.81 328.206 36.2567 328.206 41.93C328.206 43.1567 328.359 45.6867 328.666 49.52C328.973 53.3533 329.893 58.4133 331.426 64.7C332.346 68.38 333.573 72.98 335.106 78.5C336.639 84.02 338.173 89.77 339.706 95.75C341.393 101.73 342.926 107.71 344.306 113.69C345.839 119.517 346.989 124.73 347.756 129.33C348.523 133.623 348.983 136.69 349.136 138.53C349.289 140.37 349.366 142.363 349.366 144.51C349.366 149.263 348.063 153.48 345.456 157.16C342.849 160.687 339.399 163.293 335.106 164.98C334.186 165.287 333.113 165.44 331.886 165.44C330.659 165.593 328.743 165.67 326.136 165.67C315.863 165.67 305.896 162.987 296.236 157.62C286.729 152.1 278.296 144.74 270.936 135.54C270.016 134.467 268.943 133.317 267.716 132.09C266.489 130.863 265.263 129.407 264.036 127.72C262.809 125.88 261.659 123.81 260.586 121.51C259.513 119.057 258.669 116.22 258.056 113C257.749 111.773 257.596 110.623 257.596 109.55C257.596 108.477 257.596 107.327 257.596 106.1C257.596 105.027 258.133 103.647 259.206 101.96C260.279 100.273 261.429 99.43 262.656 99.43C264.649 99.43 266.719 99.7367 268.866 100.35C271.013 100.963 272.853 101.73 274.386 102.65C276.533 104.03 278.373 105.563 279.906 107.25C281.593 108.937 282.436 110.087 282.436 110.7C282.436 112.387 282.129 113.767 281.516 114.84C281.056 115.76 280.826 117.447 280.826 119.9C280.826 120.36 280.979 120.897 281.286 121.51C281.593 122.123 281.899 122.813 282.206 123.58C283.739 126.34 285.656 129.023 287.956 131.63C290.256 134.237 292.863 136.767 295.776 139.22C298.689 141.52 301.756 143.59 304.976 145.43C308.196 147.27 311.416 148.727 314.636 149.8C316.476 150.413 318.469 150.72 320.616 150.72C322.456 150.72 324.219 149.953 325.906 148.42C327.593 146.733 328.436 144.663 328.436 142.21C328.436 139.143 328.283 136 327.976 132.78C327.823 129.56 327.593 126.8 327.286 124.5C326.366 118.06 325.139 111.927 323.606 106.1C322.073 100.12 320.463 94.2933 318.776 88.62C317.089 82.7933 315.403 76.89 313.716 70.91C312.183 64.93 310.803 58.72 309.576 52.28C309.423 51.6667 309.193 50.5933 308.886 49.06C308.733 47.5267 308.503 45.9167 308.196 44.23C308.043 42.39 307.889 40.6267 307.736 38.94C307.583 37.1 307.506 35.6433 307.506 34.57C307.506 31.9633 307.583 30.2767 307.736 29.51C308.196 27.67 308.579 25.5233 308.886 23.07C309.346 20.6167 310.036 18.3167 310.956 16.17C312.029 14.0233 313.409 12.26 315.096 10.88C316.783 9.34666 319.159 8.57999 322.226 8.57999C328.359 8.57999 334.339 9.42332 340.166 11.11C346.146 12.7967 351.666 16.4 356.726 21.92Z" fill="white"/>
<path d="M456.003 21.92C458.61 24.68 460.527 27.8233 461.753 31.35C462.98 34.7233 463.823 37.8667 464.283 40.78C464.59 42.16 464.897 43.54 465.203 44.92C465.51 46.3 465.663 47.3733 465.663 48.14C465.663 48.9067 465.127 49.5967 464.053 50.21C463.133 50.8233 462.06 51.13 460.833 51.13C459.76 51.13 458.457 50.9 456.923 50.44C454.777 49.8267 452.707 48.6 450.713 46.76C448.873 44.92 447.57 43.4633 446.803 42.39C446.19 41.47 445.653 40.2433 445.193 38.71C444.887 37.1767 444.503 35.5667 444.043 33.88C443.583 32.1933 442.893 30.5833 441.973 29.05C441.053 27.3633 439.75 26.06 438.063 25.14C436.377 24.22 434.69 23.76 433.003 23.76C432.237 23.76 431.087 25.37 429.553 28.59C428.173 31.81 427.483 36.2567 427.483 41.93C427.483 43.1567 427.637 45.6867 427.943 49.52C428.25 53.3533 429.17 58.4133 430.703 64.7C431.623 68.38 432.85 72.98 434.383 78.5C435.917 84.02 437.45 89.77 438.983 95.75C440.67 101.73 442.203 107.71 443.583 113.69C445.117 119.517 446.267 124.73 447.033 129.33C447.8 133.623 448.26 136.69 448.413 138.53C448.567 140.37 448.643 142.363 448.643 144.51C448.643 149.263 447.34 153.48 444.733 157.16C442.127 160.687 438.677 163.293 434.383 164.98C433.463 165.287 432.39 165.44 431.163 165.44C429.937 165.593 428.02 165.67 425.413 165.67C415.14 165.67 405.173 162.987 395.513 157.62C386.007 152.1 377.573 144.74 370.213 135.54C369.293 134.467 368.22 133.317 366.993 132.09C365.767 130.863 364.54 129.407 363.313 127.72C362.087 125.88 360.937 123.81 359.863 121.51C358.79 119.057 357.947 116.22 357.333 113C357.027 111.773 356.873 110.623 356.873 109.55C356.873 108.477 356.873 107.327 356.873 106.1C356.873 105.027 357.41 103.647 358.483 101.96C359.557 100.273 360.707 99.43 361.933 99.43C363.927 99.43 365.997 99.7367 368.143 100.35C370.29 100.963 372.13 101.73 373.663 102.65C375.81 104.03 377.65 105.563 379.183 107.25C380.87 108.937 381.713 110.087 381.713 110.7C381.713 112.387 381.407 113.767 380.793 114.84C380.333 115.76 380.103 117.447 380.103 119.9C380.103 120.36 380.257 120.897 380.563 121.51C380.87 122.123 381.177 122.813 381.483 123.58C383.017 126.34 384.933 129.023 387.233 131.63C389.533 134.237 392.14 136.767 395.053 139.22C397.967 141.52 401.033 143.59 404.253 145.43C407.473 147.27 410.693 148.727 413.913 149.8C415.753 150.413 417.747 150.72 419.893 150.72C421.733 150.72 423.497 149.953 425.183 148.42C426.87 146.733 427.713 144.663 427.713 142.21C427.713 139.143 427.56 136 427.253 132.78C427.1 129.56 426.87 126.8 426.563 124.5C425.643 118.06 424.417 111.927 422.883 106.1C421.35 100.12 419.74 94.2933 418.053 88.62C416.367 82.7933 414.68 76.89 412.993 70.91C411.46 64.93 410.08 58.72 408.853 52.28C408.7 51.6667 408.47 50.5933 408.163 49.06C408.01 47.5267 407.78 45.9167 407.473 44.23C407.32 42.39 407.167 40.6267 407.013 38.94C406.86 37.1 406.783 35.6433 406.783 34.57C406.783 31.9633 406.86 30.2767 407.013 29.51C407.473 27.67 407.857 25.5233 408.163 23.07C408.623 20.6167 409.313 18.3167 410.233 16.17C411.307 14.0233 412.687 12.26 414.373 10.88C416.06 9.34666 418.437 8.57999 421.503 8.57999C427.637 8.57999 433.617 9.42332 439.443 11.11C445.423 12.7967 450.943 16.4 456.003 21.92Z" fill="white"/>
</svg>
